<?xml version="1.0" encoding="iso-8859-1"?>
<!-- Generator: Adobe Illustrator 21.0.0, SVG Export Plug-In . SVG Version: 6.00 Build 0)  -->
<svg version="1.1" id="Capa_1" xmlns="http://www.w3.org/2000/svg" xmlns:xlink="http://www.w3.org/1999/xlink" x="0px" y="0px"
	 viewBox="0 0 512 512" style="enable-background:new 0 0 512 512;" xml:space="preserve">
<path style="fill:#60C5E8;" d="M512,256c0,16.98-1.651,33.573-4.807,49.622c-8.589,43.739-28.317,83.477-56.111,116.151
	C404.125,476.975,334.148,512,256,512c-78.169,0-148.156-35.035-195.103-90.258c-27.784-32.664-47.501-72.401-56.09-116.12
	C1.651,289.573,0,272.98,0,256c0-58.89,19.884-113.131,53.3-156.379c20.668-26.749,46.519-49.309,76.048-66.142
	C166.693,12.173,209.92,0.01,255.979,0H256c82.505,0,155.899,39.027,202.71,99.631C492.126,142.879,512,197.12,512,256z"/>
<g>
	<path style="fill:#FFB133;" d="M433.429,187.959c30.067,42.861,80.22,130.628,47.307,163.54s-57.989,25.076-57.989,25.076"/>
	<path style="fill:#FFB133;" d="M79.612,187.959c-30.067,42.861-80.22,130.627-47.307,163.54s57.989,25.076,57.989,25.076"/>
</g>
<path style="fill:#FFDF5E;" d="M455.659,347.418c0,25.527-1.578,50.395-4.577,74.355C404.125,476.975,334.148,512,256,512
	c-78.169,0-148.156-35.035-195.103-90.258c-2.999-23.949-4.577-48.818-4.577-74.324c0-93.602,21.274-178.563,55.871-241.037
	c20.292-36.645,45.171-65.557,73.038-83.926C207.214,7.941,231.069,0,255.979,0H256c24.91,0,48.755,7.941,70.74,22.434
	c27.867,18.38,52.757,47.303,73.049,83.958C434.395,168.866,455.659,253.816,455.659,347.418z"/>
<path style="fill:#FFB133;" d="M256,512c-78.169,0-148.156-35.035-195.103-90.258c-2.999-23.949-4.577-48.818-4.577-74.324
	C56.32,155.554,145.701,0.01,255.979,0c-64.575,0.01-116.903,155.554-116.903,347.418c0,25.506,0.92,50.375,2.675,74.324
	C169.242,476.965,210.223,512,256,512z"/>
<path style="fill:#EAEAEA;" d="M507.193,305.622C484.091,423.257,380.406,512,256,512S27.909,423.257,4.807,305.622l83.728,41.796
	l83.728-41.796l83.728,41.796l83.738-41.796l83.728,41.796L507.193,305.622z"/>
<path style="fill:#D8D8D8;" d="M256,512C131.594,512,27.909,423.257,4.807,305.622l83.728,41.796l25.64-12.801
	C128.374,443.422,199.147,512,256,512z"/>
<path style="fill:#FFB133;" d="M399.788,106.392l-60.061,29.978L255.99,94.574l-83.728,41.796l-60.071-29.989
	c20.292-36.645,45.171-65.557,73.038-83.926c22.476-6.457,46.205-9.905,70.75-9.916H256c24.545,0,48.274,3.459,70.74,9.895
	C354.607,40.814,379.496,69.736,399.788,106.392z"/>
<path style="fill:#EAEAEA;" d="M458.71,99.631l-35.255-17.596l-83.728,41.796L255.99,82.035l-83.728,41.796L88.534,82.035
	L53.3,99.621C100.112,39.027,173.495,0.01,255.979,0H256C338.505,0,411.899,39.027,458.71,99.631z"/>
<path style="fill:#D8D8D8;" d="M129.348,33.479c-7.022,18.62-12.278,39.152-15.172,61.356l-25.642-12.8L53.3,99.621
	C73.968,72.871,99.819,50.312,129.348,33.479z"/>
<ellipse style="fill:#3C363F;" cx="338.819" cy="168.584" rx="27.251" ry="30.047"/>
<ellipse style="fill:#5C5560;" cx="348.473" cy="166.055" rx="8.894" ry="15.332"/>
<ellipse style="fill:#3C363F;" cx="173.16" cy="168.584" rx="27.251" ry="30.047"/>
<ellipse style="fill:#5C5560;" cx="182.805" cy="166.055" rx="8.894" ry="15.332"/>
<polygon style="fill:#E86523;" points="255.99,256.414 307.082,208.108 204.897,208.108 "/>
<polygon style="fill:#FF8E4F;" points="255.99,113.793 204.897,208.108 307.082,208.108 "/>
<polygon style="fill:#E86523;" points="255.99,113.793 240.944,208.108 204.897,208.108 "/>
<g>
</g>
<g>
</g>
<g>
</g>
<g>
</g>
<g>
</g>
<g>
</g>
<g>
</g>
<g>
</g>
<g>
</g>
<g>
</g>
<g>
</g>
<g>
</g>
<g>
</g>
<g>
</g>
<g>
</g>
</svg>
