<svg xmlns="http://www.w3.org/2000/svg" viewBox="0 0 512 512"><path d="M512 256c0 16.98-1.651 33.573-4.807 49.622-8.589 43.739-28.317 83.477-56.111 116.151C404.125 476.975 334.148 512 256 512c-78.169 0-148.156-35.035-195.103-90.258-27.784-32.664-47.501-72.401-56.09-116.12C1.651 289.573 0 272.98 0 256c0-58.89 19.884-113.131 53.3-156.379 20.668-26.749 46.519-49.309 76.048-66.142C166.693 12.173 209.92.01 255.979 0H256c82.505 0 155.899 39.027 202.71 99.631C492.126 142.879 512 197.12 512 256z" fill="#60c5e8"/><path d="M433.429 187.959c30.067 42.861 80.22 130.628 47.307 163.54s-57.989 25.076-57.989 25.076M79.612 187.959C49.545 230.82-.608 318.586 32.305 351.499s57.989 25.076 57.989 25.076" fill="#ffb133"/><path d="M455.659 347.418c0 25.527-1.578 50.395-4.577 74.355C404.125 476.975 334.148 512 256 512c-78.169 0-148.156-35.035-195.103-90.258-2.999-23.949-4.577-48.818-4.577-74.324 0-93.602 21.274-178.563 55.871-241.037 20.292-36.645 45.171-65.557 73.038-83.926C207.214 7.941 231.069 0 255.979 0H256c24.91 0 48.755 7.941 70.74 22.434 27.867 18.38 52.757 47.303 73.049 83.958 34.606 62.474 55.87 147.424 55.87 241.026z" fill="#ffdf5e"/><path d="M256 512c-78.169 0-148.156-35.035-195.103-90.258-2.999-23.949-4.577-48.818-4.577-74.324C56.32 155.554 145.701.01 255.979 0c-64.575.01-116.903 155.554-116.903 347.418 0 25.506.92 50.375 2.675 74.324C169.242 476.965 210.223 512 256 512z" fill="#ffb133"/><path d="M507.193 305.622C484.091 423.257 380.406 512 256 512S27.909 423.257 4.807 305.622l83.728 41.796 83.728-41.796 83.728 41.796 83.738-41.796 83.728 41.796 83.736-41.796z" fill="#eaeaea"/><path d="M256 512C131.594 512 27.909 423.257 4.807 305.622l83.728 41.796 25.64-12.801C128.374 443.422 199.147 512 256 512z" fill="#d8d8d8"/><path d="M399.788 106.392l-60.061 29.978-83.737-41.796-83.728 41.796-60.071-29.989c20.292-36.645 45.171-65.557 73.038-83.926 22.476-6.457 46.205-9.905 70.75-9.916H256c24.545 0 48.274 3.459 70.74 9.895 27.867 18.38 52.756 47.302 73.048 83.958z" fill="#ffb133"/><path d="M458.71 99.631l-35.255-17.596-83.728 41.796-83.737-41.796-83.728 41.796-83.728-41.796L53.3 99.621C100.112 39.027 173.495.01 255.979 0H256c82.505 0 155.899 39.027 202.71 99.631z" fill="#eaeaea"/><path d="M129.348 33.479c-7.022 18.62-12.278 39.152-15.172 61.356l-25.642-12.8L53.3 99.621c20.668-26.75 46.519-49.309 76.048-66.142z" fill="#d8d8d8"/><ellipse cx="338.819" cy="168.584" rx="27.251" ry="30.047" fill="#3c363f"/><ellipse cx="348.473" cy="166.055" rx="8.894" ry="15.332" fill="#5c5560"/><ellipse cx="173.16" cy="168.584" rx="27.251" ry="30.047" fill="#3c363f"/><ellipse cx="182.805" cy="166.055" rx="8.894" ry="15.332" fill="#5c5560"/><path fill="#e86523" d="M255.99 256.414l51.092-48.306H204.897z"/><path fill="#ff8e4f" d="M255.99 113.793l-51.093 94.315h102.185z"/><path fill="#e86523" d="M255.99 113.793l-15.046 94.315h-36.047z"/></svg>